<mxfile host="app.diagrams.net" modified="2024-03-12T06:07:25.745Z" agent="Mozilla/5.0 (Windows NT 10.0; Win64; x64) AppleWebKit/537.36 (KHTML, like Gecko) Chrome/122.0.0.0 Safari/537.36" version="23.1.6" etag="oKTfxQUC05KEGD-GESAG" type="github">
  <diagram name="Page-1" id="4FFDAxwUfak8qvq3wtwa">
    <mxGraphModel>
      <root>
        <mxCell id="0" />
        <mxCell id="1" parent="0" />
      </root>
    </mxGraphModel>
  </diagram>
</mxfile>
